<svg width="24" height="24" viewBox="0 0 24 24" fill="none" xmlns="http://www.w3.org/2000/svg">
<path d="M12 2.3999C8.02358 2.3999 4.80003 5.62345 4.80003 9.5999V13.9028L3.95151 14.7514C3.60831 15.0946 3.50564 15.6107 3.69138 16.0591C3.87712 16.5075 4.31468 16.7999 4.80003 16.7999H19.2C19.6854 16.7999 20.123 16.5075 20.3087 16.0591C20.4944 15.6107 20.3918 15.0946 20.0486 14.7514L19.2 13.9028V9.5999C19.2 5.62345 15.9765 2.3999 12 2.3999Z" fill="#264179"/>
<path d="M12 21.5999C10.0118 21.5999 8.4 19.9881 8.4 17.9999H15.6C15.6 19.9881 13.9882 21.5999 12 21.5999Z" fill="#264179"/>
<circle cx="16" cy="4" r="3.5" fill="#F7A533" stroke="white"/>
</svg>
