<svg width="20" height="20" viewBox="0 0 20 20" fill="none" xmlns="http://www.w3.org/2000/svg">
<path d="M4.5835 1.25C4.5835 0.559766 5.14209 0 5.8335 0C6.5249 0 7.0835 0.559766 7.0835 1.25V2.5H12.0835V1.25C12.0835 0.559766 12.6421 0 13.3335 0C14.0249 0 14.5835 0.559766 14.5835 1.25V2.5H16.4585C17.4937 2.5 18.3335 3.33945 18.3335 4.375V6.25H0.833496V4.375C0.833496 3.33945 1.67295 2.5 2.7085 2.5H4.5835V1.25ZM18.3335 18.125C18.3335 19.1602 17.4937 20 16.4585 20H2.7085C1.67295 20 0.833496 19.1602 0.833496 18.125V7.5H18.3335V18.125Z" fill="#98A2B3"/>
</svg>
