<svg width="40" height="40" viewBox="0 0 40 40" fill="none" xmlns="http://www.w3.org/2000/svg">
<circle opacity="0.5" cx="20" cy="20" r="20" fill="#D6E1F7"/>
<circle opacity="0.8" cx="20" cy="20" r="14" fill="#264179"/>
<path d="M27.5 14.8438C27.5 15.3714 27.0811 15.8574 26.375 16.25C25.5225 16.7217 24.2539 17.0557 22.792 17.1553C22.6865 17.1055 22.5752 17.0557 22.4639 17.0088C21.3066 16.5254 19.7715 16.25 18.125 16.25C17.8818 16.25 17.6445 16.2559 17.4072 16.2676L17.375 16.25C16.6689 15.8574 16.25 15.3714 16.25 14.8438C16.25 13.5494 18.7432 12.5 21.875 12.5C24.9805 12.5 27.5 13.5494 27.5 14.8438ZM17.208 17.2197C17.5068 17.1992 17.8115 17.1875 18.125 17.1875C19.9473 17.1875 21.5645 17.5479 22.5928 18.1074C23.3193 18.5029 23.75 18.9951 23.75 19.5312C23.75 19.6221 23.7295 19.7627 23.6885 19.874C23.5537 20.2607 23.167 20.6152 22.6631 20.917C22.6602 20.917 22.6543 20.9199 22.6514 20.9229C22.6426 20.9287 22.6338 20.9316 22.625 20.9375C21.5996 21.5059 19.9648 21.875 18.125 21.875C16.3789 21.875 14.8162 21.5439 13.7844 21.0225C13.7296 20.9932 13.6763 20.9404 13.6247 20.9375C12.9184 20.5449 12.5 20.0586 12.5 19.5312C12.5 18.5117 14.0653 17.6416 16.25 17.3223C16.5576 17.2754 16.877 17.2402 17.208 17.2197ZM23.9814 17.9668C24.8105 17.8379 25.5693 17.6328 26.2139 17.3662C26.6914 17.167 27.1338 16.9209 27.5 16.6191V17.6562C27.5 18.2217 27.0166 18.7432 26.2168 19.1475C25.7861 19.3643 25.2676 19.5459 24.6816 19.6865C24.6846 19.6367 24.6875 19.584 24.6875 19.5312C24.6875 18.8896 24.377 18.3623 23.9814 17.9668ZM23.75 22.3438C23.75 22.8711 23.3311 23.3574 22.625 23.75C22.5723 23.7529 22.5195 23.8057 22.4668 23.835C21.4326 24.3564 19.8711 24.6875 18.125 24.6875C16.2852 24.6875 14.651 24.3184 13.6247 23.75C12.9184 23.3574 12.5 22.8711 12.5 22.3438V21.3066C12.8647 21.6084 13.3092 21.8545 13.787 22.0537C14.9445 22.5371 16.4785 22.8125 18.125 22.8125C19.7715 22.8125 21.3066 22.5371 22.4639 22.0537C22.6924 21.96 22.9121 21.8516 23.1201 21.7344C23.2988 21.6348 23.4658 21.5234 23.624 21.4062C23.668 21.374 23.709 21.3389 23.75 21.3066V22.3438ZM24.6875 20.6475C25.2178 20.501 25.7568 20.3691 26.2139 20.1787C26.6914 19.9795 27.1338 19.7334 27.5 19.4316V20.4688C27.5 20.7764 27.3535 21.084 27.0635 21.374C26.5859 21.8516 25.7451 22.2441 24.6816 22.499C24.6846 22.4492 24.6875 22.3965 24.6875 22.3438V20.6475ZM18.125 25.625C19.7715 25.625 21.3066 25.3496 22.4639 24.8662C22.9414 24.667 23.3838 24.4209 23.75 24.1191V25.1562C23.75 26.4512 21.2305 27.5 18.125 27.5C15.0184 27.5 12.5 26.4512 12.5 25.1562V24.1191C12.8647 24.4209 13.3092 24.667 13.787 24.8662C14.9445 25.3496 16.4785 25.625 18.125 25.625Z" fill="white"/>
</svg>
