<svg width="40" height="40" viewBox="0 0 40 40" fill="none" xmlns="http://www.w3.org/2000/svg">
<rect width="40" height="40" rx="4" fill="#F8D5DD" fill-opacity="0.4"/>
<g clip-path="url(#clip0_759_1860)">
<path d="M31.2932 27.9053C32.2306 28.8427 32.2306 30.3614 31.2932 31.2988C30.8282 31.7675 30.2133 32 29.5983 32C28.9834 32 28.3699 31.7656 27.9019 31.2969L19.9991 23.3982L12.0969 31.2951C11.6282 31.7675 11.014 32 10.3998 32C9.78561 32 9.17216 31.7675 8.70307 31.2951C7.76564 30.3576 7.76564 28.839 8.70307 27.9016L16.6075 19.9972L8.70307 12.0966C7.76564 11.1591 7.76564 9.6405 8.70307 8.70307C9.6405 7.76564 11.1591 7.76564 12.0966 8.70307L19.9991 16.6112L27.9034 8.70682C28.8409 7.76939 30.3595 7.76939 31.2969 8.70682C32.2344 9.64425 32.2344 11.1629 31.2969 12.1003L23.3925 20.0047L31.2932 27.9053Z" fill="#DB2E57"/>
</g>
<defs>
<clipPath id="clip0_759_1860">
<rect width="24" height="24" fill="white" transform="translate(8 8)"/>
</clipPath>
</defs>
</svg>
