<svg width="40" height="40" viewBox="0 0 40 40" fill="none" xmlns="http://www.w3.org/2000/svg">
<circle opacity="0.5" cx="20" cy="20" r="20" fill="#D6E1F7"/>
<circle opacity="0.8" cx="20" cy="20" r="14" fill="#264179"/>
<path d="M15.7292 26.2764C15.7292 26.4912 15.5522 26.667 15.3386 26.667H14.5574C14.3438 26.667 14.1667 26.4912 14.1667 26.2764V14.9482C14.1667 14.5149 14.5146 14.167 14.948 14.167C15.3813 14.167 15.7292 14.5149 15.7292 14.9482V26.2764ZM25.7952 14.167C25.6398 14.167 25.4775 14.2 25.323 14.2703C24.2075 14.7796 23.3806 14.9525 22.6912 14.9525C21.2273 14.9525 20.3765 14.1746 18.6897 14.1744C18.095 14.1745 17.3796 14.2858 16.5105 14.5515V23.1086C17.2917 22.8649 17.9722 22.7644 18.582 22.7644C20.3796 22.7644 21.6313 23.5403 23.4307 23.5403C24.2097 23.5403 25.0913 23.3945 26.1431 22.9766C26.4739 22.856 26.6667 22.5752 26.6667 22.2749V14.9172C26.6667 14.438 26.259 14.167 25.7952 14.167Z" fill="white"/>
</svg>
