<svg width="40" height="40" viewBox="0 0 40 40" fill="none" xmlns="http://www.w3.org/2000/svg">
<circle opacity="0.5" cx="20" cy="20" r="20" fill="#D6E1F7"/>
<circle opacity="0.8" cx="20" cy="20" r="14" fill="#264179"/>
<path d="M20.3422 19.1616L19.6391 19.7581C18.6875 20.5655 17.6047 20.0165 17.2555 19.665C16.625 19.0271 16.6742 18.0398 17.3586 17.4582L19.2758 15.833H19.1211C17.7664 15.833 16.4633 16.331 15.5047 17.2174L13.25 17.2239C12.8375 17.2239 12.5 17.5361 12.5 17.9178V21.3853C12.5 21.767 12.8375 22.0805 13.2289 22.0805L15.9078 22.0792L18.0289 23.8546C18.6734 24.34 19.6168 24.2476 20.1383 23.6538L20.563 23.9847C20.9352 24.2472 21.4859 24.2125 21.7906 23.8682L22.5261 23.0306L22.652 23.1282C22.9743 23.3669 23.4461 23.3236 23.7067 23.0252L23.9312 22.7685C24.1909 22.4712 24.1416 22.0362 23.821 21.7951L20.3422 19.1616ZM26.75 17.2239L24.5 17.2212C23.5395 16.3324 22.2369 15.8351 20.8789 15.8351L20.6773 15.833C20.4898 15.833 20.3112 15.9024 20.1706 16.0189L17.8672 17.966C17.8648 17.9703 17.8625 17.9747 17.8625 17.9747C17.4688 18.3175 17.4781 18.8556 17.8109 19.1898C18.0365 19.4176 18.6313 19.6589 19.1265 19.2495C19.1265 19.2468 19.1323 19.2468 19.1353 19.2441L21.0103 17.6579C21.1626 17.5305 21.3998 17.5386 21.5404 17.6796C21.6811 17.8205 21.6693 18.0402 21.517 18.1704L20.9048 18.6884L24.3173 21.251C24.6014 21.4678 24.7743 21.7607 24.8357 22.0751L26.75 22.0758C27.1625 22.0758 27.5 21.7637 27.5 21.3818V17.9183C27.5 17.5342 27.1648 17.2239 26.75 17.2239Z" fill="white"/>
</svg>
