<svg width="40" height="40" viewBox="0 0 40 40" fill="none" xmlns="http://www.w3.org/2000/svg">
<circle opacity="0.5" cx="20" cy="20" r="20" fill="#D6E1F7"/>
<circle opacity="0.8" cx="20" cy="20" r="14" fill="#264179"/>
<path d="M15.7143 15C13.9391 15 12.5 16.3502 12.5 18.0789C12.5 19.8076 13.9391 21.1579 15.7143 21.1579C16.092 21.1579 16.4492 21.084 16.7857 20.9693V21.1579C16.7857 22.29 15.8248 23.2105 14.6429 23.2105C14.0512 23.2105 13.5714 23.6701 13.5714 24.2368C13.5714 24.8036 14.0512 25.2632 14.6429 25.2632C17.006 25.2632 18.9286 23.4216 18.9286 21.1579V18.0789C18.9286 16.3502 17.4888 15 15.7143 15ZM27.5 18.0789C27.5 16.3785 26.0609 15 24.2857 15C22.5105 15 21.0714 16.3785 21.0714 18.0789C21.0714 19.7794 22.5105 21.1579 24.2857 21.1579C24.6634 21.1579 25.0206 21.084 25.3571 20.9693V21.1579C25.3571 22.29 24.3962 23.2105 23.2143 23.2105C22.6227 23.2105 22.1429 23.6701 22.1429 24.2368C22.1429 24.8036 22.6227 25.2632 23.2143 25.2632C25.5775 25.2632 27.5 23.4216 27.5 21.1579V18.0789Z" fill="white"/>
</svg>
