<svg width="20" height="20" viewBox="0 0 20 20" fill="none" xmlns="http://www.w3.org/2000/svg">
<g clip-path="url(#clip0_804_1692)">
<path d="M19.543 17.3321L14.8672 12.6563C15.9305 11.0778 16.4551 9.10549 16.1742 7.00392C15.6953 3.4293 12.7656 0.520301 9.18749 0.0672915C3.86755 -0.605875 -0.605907 3.86758 0.0672989 9.18752C0.520426 12.7672 3.42981 15.6993 7.00482 16.1758C9.10639 16.4567 11.0791 15.9322 12.6572 14.8688L17.333 19.5446C17.9431 20.1548 18.9326 20.1548 19.5428 19.5446C20.1524 18.9337 20.1524 17.9415 19.543 17.3321ZM3.08981 8.12502C3.08981 5.36798 5.33279 3.125 8.08983 3.125C10.8469 3.125 13.0898 5.36798 13.0898 8.12502C13.0898 10.8821 10.8469 13.125 8.08983 13.125C5.33279 13.125 3.08981 10.8828 3.08981 8.12502Z" fill="#98A2B3"/>
</g>
<defs>
<clipPath id="clip0_804_1692">
<rect width="20" height="20" fill="white"/>
</clipPath>
</defs>
</svg>
