<svg width="40" height="40" viewBox="0 0 40 40" fill="none" xmlns="http://www.w3.org/2000/svg">
<circle opacity="0.5" cx="20" cy="20" r="20" fill="#E7EAEE"/>
<circle opacity="0.8" cx="20" cy="20" r="14" fill="#E7EAEE"/>
<path d="M19.0489 12.927C19.3483 12.0057 20.6517 12.0057 20.9511 12.9271L22.0206 16.2188C22.1545 16.6309 22.5385 16.9098 22.9717 16.9098H26.4329C27.4016 16.9098 27.8044 18.1494 27.0207 18.7188L24.2205 20.7533C23.87 21.0079 23.7234 21.4593 23.8572 21.8713L24.9268 25.1631C25.2261 26.0844 24.1717 26.8506 23.388 26.2812L20.5878 24.2467C20.2373 23.9921 19.7627 23.9921 19.4122 24.2467L16.612 26.2812C15.8283 26.8506 14.7739 26.0844 15.0732 25.1631L16.1428 21.8713C16.2766 21.4593 16.13 21.0079 15.7795 20.7533L12.9793 18.7188C12.1956 18.1494 12.5984 16.9098 13.5671 16.9098H17.0283C17.4615 16.9098 17.8455 16.6309 17.9794 16.2188L19.0489 12.927Z" fill="#C7CCD3"/>
</svg>
