<svg width="40" height="41" viewBox="0 0 40 41" fill="none" xmlns="http://www.w3.org/2000/svg">
<circle opacity="0.5" cx="20" cy="20.6855" r="20" fill="#D6E1F7"/>
<circle opacity="0.8" cx="20" cy="20.6855" r="14" fill="#264179"/>
<path d="M19.0483 13.6366C19.3463 12.7125 20.6537 12.7125 20.9517 13.6366L22.0096 16.9166C22.143 17.3305 22.5286 17.6106 22.9635 17.6097L26.4098 17.6022C27.3808 17.6 27.7848 18.8435 26.998 19.4125L24.2054 21.4321C23.8531 21.6869 23.7058 22.1402 23.8411 22.5535L24.9132 25.8288C25.2153 26.7516 24.1576 27.5201 23.3733 26.9477L20.5896 24.9159C20.2383 24.6595 19.7617 24.6595 19.4104 24.9159L16.6267 26.9477C15.8424 27.5201 14.7847 26.7516 15.0868 25.8289L16.1589 22.5535C16.2942 22.1402 16.1469 21.6869 15.7946 21.4321L13.002 19.4125C12.2152 18.8435 12.6192 17.6 13.5902 17.6022L17.0365 17.6097C17.4714 17.6106 17.857 17.3305 17.9904 16.9166L19.0483 13.6366Z" fill="white"/>
</svg>
