<svg width="40" height="40" viewBox="0 0 40 40" fill="none" xmlns="http://www.w3.org/2000/svg">
<rect width="40" height="40" rx="4" fill="#D1F6E1" fill-opacity="0.4"/>
<path d="M8 20C8 13.3719 13.3719 8 20 8C26.6281 8 32 13.3719 32 20C32 26.6281 26.6281 32 20 32C13.3719 32 8 26.6281 8 20ZM25.4281 17.9281C25.9391 17.4172 25.9391 16.5828 25.4281 16.0719C24.9172 15.5609 24.0828 15.5609 23.5719 16.0719L18.5 21.1437L16.4281 19.0719C15.9172 18.5609 15.0828 18.5609 14.5719 19.0719C14.0609 19.5828 14.0609 20.4172 14.5719 20.9281L17.5719 23.9281C18.0828 24.4391 18.9172 24.4391 19.4281 23.9281L25.4281 17.9281Z" fill="#17D06A"/>
</svg>
